<?xml version="1.0" encoding="iso-8859-1"?>
<!-- Generator: Adobe Illustrator 19.0.0, SVG Export Plug-In . SVG Version: 6.00 Build 0)  -->
<svg version="1.1" id="Layer_1" xmlns="http://www.w3.org/2000/svg" xmlns:xlink="http://www.w3.org/1999/xlink" x="0px" y="0px"
	 viewBox="0 0 512 512" style="enable-background:new 0 0 512 512;" xml:space="preserve">
<g>
	<g>
		<g>
			<path d="M416,21.333h32v32C448,59.221,452.779,64,458.667,64s10.667-4.779,10.667-10.667V10.667
				C469.333,4.779,464.555,0,458.667,0H416c-5.888,0-10.667,4.779-10.667,10.667S410.112,21.333,416,21.333z"/>
			<path d="M53.333,64C59.221,64,64,59.221,64,53.333v-32h32c5.888,0,10.667-4.779,10.667-10.667S101.888,0,96,0H53.333
				c-5.888,0-10.667,4.779-10.667,10.667v42.667C42.667,59.221,47.445,64,53.333,64z"/>
			<path d="M416,362.667h42.667c5.888,0,10.667-4.779,10.667-10.667v-42.667c0-5.888-4.779-10.667-10.667-10.667
				S448,303.445,448,309.333v32h-32c-5.888,0-10.667,4.779-10.667,10.667C405.333,357.888,410.112,362.667,416,362.667z"/>
			<path d="M421.163,384.981l-81.728-20.416l-6.955-27.819c21.888-21.653,36.864-51.392,41.301-81.92
				c12.117-3.392,21.504-13.824,23.125-26.837l5.333-42.667c1.131-9.003-1.643-18.091-7.595-24.939
				c-3.499-4.032-7.936-7.061-12.821-8.917l1.963-40.171l7.979-7.979c12.032-12.779,21.995-34.709,1.152-66.475
				C376.917,12.395,349.739,0,312.128,0c-14.827,0-49.024,0-80.875,21.376C140.352,23.275,128,65.472,128,106.667
				c0,9.579,2.325,31.147,3.861,44.139c-5.483,1.749-10.453,4.928-14.336,9.323c-6.059,6.891-8.896,16.043-7.765,25.173
				l5.333,42.667c1.728,13.888,12.309,24.832,25.643,27.435c4.437,29.312,18.624,58.112,39.232,79.403l-7.424,29.739L90.816,384.96
				C37.333,398.336,0,446.187,0,501.333c0,2.837,1.109,5.568,3.115,7.552C5.12,510.869,7.829,512,10.667,512l490.667-0.043
				c5.888,0,10.667-4.779,10.667-10.667C512,446.187,474.667,398.336,421.163,384.981z M21.888,490.624
				C26.283,449.92,55.531,415.787,96,405.653l87.936-21.973c3.819-0.96,6.805-3.925,7.765-7.765l10.453-41.835
				c0.939-3.733-0.235-7.701-3.072-10.347c-21.547-20.224-35.819-49.856-38.165-79.253c-0.427-5.547-5.056-9.813-10.624-9.813
				h-3.456c-5.376,0-9.92-4.011-10.603-9.344l-5.333-42.645c-0.384-3.093,0.533-6.08,2.603-8.405
				c2.048-2.325,4.864-3.605,7.979-3.605h2.219c3.072,0,5.995-1.323,8-3.584c2.027-2.325,2.965-5.355,2.581-8.405
				c-1.365-10.923-4.949-41.579-4.949-52.011c0-33.28,6.549-63.211,85.44-64c2.176-0.021,4.309-0.704,6.101-1.984
				c23.829-17.067,49.408-19.349,71.253-19.349c29.952,0,51.136,9.152,62.976,27.2c14.165,21.632,8.043,32.832,1.365,39.936
				l-10.667,10.667c-1.877,1.877-2.987,4.373-3.115,7.019l-2.603,53.376c-0.149,2.901,0.896,5.696,2.88,7.829
				c1.963,2.091,4.715,3.307,7.616,3.349c3.093,0.043,5.931,1.365,7.979,3.691c2.005,2.304,2.901,5.227,2.517,8.256l-5.333,42.667
				c-0.661,5.333-5.205,9.344-11.627,9.344c-5.547,0-10.176,4.267-10.624,9.856c-2.411,30.315-17.344,60.523-39.979,80.811
				c-2.923,2.624-4.181,6.677-3.221,10.517l10.027,40.085c0.96,3.819,3.925,6.805,7.765,7.765l87.936,21.973
				c40.469,10.112,69.696,44.267,74.091,84.992L21.888,490.624z"/>
			<path d="M53.333,362.667H96c5.888,0,10.667-4.779,10.667-10.667c0-5.888-4.779-10.667-10.667-10.667H64v-32
				c0-5.888-4.779-10.667-10.667-10.667s-10.667,4.779-10.667,10.667V352C42.667,357.888,47.445,362.667,53.333,362.667z"/>
		</g>
	</g>
</g>
<g>
</g>
<g>
</g>
<g>
</g>
<g>
</g>
<g>
</g>
<g>
</g>
<g>
</g>
<g>
</g>
<g>
</g>
<g>
</g>
<g>
</g>
<g>
</g>
<g>
</g>
<g>
</g>
<g>
</g>
</svg>
